# xmcd
#
# Track frame offsets:
#	150
#	15152
#	26283
#	37618
#	63597
#	96271
#	117771
#	130546
#	147280
#	177478
#
# Disc length: 2802 seconds
#
# Revision: 0
# Processed by: cddbd v1.4PL0 Copyright (c) Steve Scherf et al.
# Submitted via: AudioConverter v4.1 Copyright (c) Dennis Rebentrost
#
DISCID=720af00a
DTITLE=Yams - Don't Freak Out
DYEAR=2001
DGENRE=Country
TTITLE0=E-Smoke
TTITLE1=Inflatable Device
TTITLE2=Lazy London Rag
TTITLE3=Love and disrepair
TTITLE4=Stars of the Night
TTITLE5=Bad Bean
TTITLE6=Mike's jig
TTITLE7=Sad but True
TTITLE8=Orbatronic
TTITLE9=Don't Freak Out
EXTD=
EXTT0=
EXTT1=
EXTT2=
EXTT3=
EXTT4=
EXTT5=
EXTT6=
EXTT7=
EXTT8=
EXTT9=
PLAYORDER=
